<svg width="1200" height="630" viewBox="0 0 1200 630" fill="none" xmlns="http://www.w3.org/2000/svg">
  <defs>
    <linearGradient id="bg" x1="72" y1="48" x2="1088" y2="598" gradientUnits="userSpaceOnUse">
      <stop stop-color="#1A130D"/>
      <stop offset="0.48" stop-color="#2A1C11"/>
      <stop offset="1" stop-color="#3A2718"/>
    </linearGradient>
    <radialGradient id="sun" cx="0" cy="0" r="1" gradientUnits="userSpaceOnUse" gradientTransform="translate(956 176) rotate(90) scale(220)">
      <stop stop-color="#F1C16B" stop-opacity="0.32"/>
      <stop offset="1" stop-color="#F1C16B" stop-opacity="0"/>
    </radialGradient>
    <linearGradient id="panel" x1="118" y1="122" x2="1024" y2="540" gradientUnits="userSpaceOnUse">
      <stop stop-color="rgba(247,228,186,0.09)"/>
      <stop offset="1" stop-color="rgba(92,60,31,0.22)"/>
    </linearGradient>
    <linearGradient id="accent" x1="0" y1="0" x2="1" y2="1">
      <stop stop-color="#F7E4BA"/>
      <stop offset="1" stop-color="#B37A3C"/>
    </linearGradient>
  </defs>
  <rect width="1200" height="630" fill="url(#bg)"/>
  <circle cx="956" cy="176" r="220" fill="url(#sun)"/>
  <rect x="74" y="58" width="1052" height="514" rx="40" fill="url(#panel)" stroke="rgba(239,200,128,0.18)" stroke-width="2"/>

  <g opacity="0.18">
    <path d="M812 92H1074" stroke="#E1BF7B" stroke-width="2"/>
    <path d="M812 122H1074" stroke="#E1BF7B" stroke-width="2"/>
    <path d="M812 152H1074" stroke="#E1BF7B" stroke-width="2"/>
    <path d="M812 182H1074" stroke="#E1BF7B" stroke-width="2"/>
    <path d="M812 212H1074" stroke="#E1BF7B" stroke-width="2"/>
  </g>

  <g opacity="0.16">
    <rect x="110" y="352" width="430" height="164" rx="28" stroke="#F7E4BA" stroke-width="2"/>
    <path d="M110 406H540" stroke="#F7E4BA" stroke-width="2"/>
    <path d="M110 460H540" stroke="#F7E4BA" stroke-width="2"/>
    <path d="M254 352V516" stroke="#F7E4BA" stroke-width="2"/>
    <path d="M398 352V516" stroke="#F7E4BA" stroke-width="2"/>
  </g>

  <g transform="translate(760 290)">
    <circle cx="120" cy="18" r="92" fill="rgba(241,193,107,0.10)"/>
    <circle cx="120" cy="18" r="68" fill="#C77449"/>
    <circle cx="120" cy="18" r="42" fill="#20120C"/>
    <path d="M120 -42L133 -14" stroke="#F7E4BA" stroke-width="7" stroke-linecap="round"/>
    <path d="M156 -26L142 -3" stroke="#F7E4BA" stroke-width="7" stroke-linecap="round"/>
    <path d="M182 18H154" stroke="#F7E4BA" stroke-width="7" stroke-linecap="round"/>
    <path d="M156 62L142 39" stroke="#F7E4BA" stroke-width="7" stroke-linecap="round"/>
    <path d="M120 78L133 50" stroke="#F7E4BA" stroke-width="7" stroke-linecap="round"/>
    <path d="M84 62L98 39" stroke="#F7E4BA" stroke-width="7" stroke-linecap="round"/>
    <path d="M58 18H86" stroke="#F7E4BA" stroke-width="7" stroke-linecap="round"/>
    <path d="M84 -26L98 -3" stroke="#F7E4BA" stroke-width="7" stroke-linecap="round"/>
    <path d="M102 30L114 15L138 24L130 52L102 30Z" fill="#F2D197" stroke="#F7E4BA" stroke-width="5" stroke-linejoin="round"/>
    <path d="M112 0L118 -11H132L138 -2L132 17H114L112 0Z" fill="#D8A85A" stroke="#F7E4BA" stroke-width="5" stroke-linejoin="round"/>
  </g>

  <text x="118" y="150" fill="#E1BF7B" font-family="IBM Plex Mono, Menlo, monospace" font-size="24" letter-spacing="6">RETRO-FUTURIST DESERT GAME</text>
  <text x="118" y="248" fill="#F7E4BA" font-family="IBM Plex Mono, Menlo, monospace" font-size="82" font-weight="700">AMBER DUNES</text>
  <text x="118" y="332" fill="#D98448" font-family="IBM Plex Mono, Menlo, monospace" font-size="82" font-weight="700">HARVEST</text>
  <text x="118" y="404" fill="#F9F1DF" font-family="IBM Plex Mono, Menlo, monospace" font-size="30">
    Gather amber. Move like a knight. Evade Sinkjaw strikes.
  </text>
  <text x="118" y="452" fill="#CBB69A" font-family="IBM Plex Mono, Menlo, monospace" font-size="24">
    Browser game by Ilya Mirin
  </text>
  <text x="118" y="494" fill="#CBB69A" font-family="IBM Plex Mono, Menlo, monospace" font-size="24">
    linkedin.com/in/ilyamirin
  </text>
</svg>
